<svg width="100" height="30" viewBox="0 0 100 30" xmlns="http://www.w3.org/2000/svg"><g id="svgGroup" stroke-linecap="round" fill-rule="evenodd" font-size="9pt" stroke="#ffffff" stroke-width="0.3mm" fill="#ffffff" style="stroke:#ffffff;stroke-width:0.3mm;fill:#ffffff"><path d="M 10.68 26.52 L 10.68 9.36 A 2.014 2.014 0 0 1 10.783 8.703 A 1.714 1.714 0 0 1 11.2 8.04 A 1.736 1.736 0 0 1 12.457 7.52 A 2.208 2.208 0 0 1 12.48 7.52 Q 13.24 7.52 13.78 8.04 A 1.739 1.739 0 0 1 14.319 9.286 A 2.314 2.314 0 0 1 14.32 9.36 L 14.32 11 A 15.3 15.3 0 0 1 16.601 8.971 A 17.754 17.754 0 0 1 17.34 8.46 A 6.63 6.63 0 0 1 19.454 7.571 Q 20.504 7.32 21.76 7.32 A 8.174 8.174 0 0 1 23.625 7.523 A 6.151 6.151 0 0 1 25.64 8.38 Q 27.24 9.44 28.08 11.22 A 8.86 8.86 0 0 1 28.891 14.364 A 10.593 10.593 0 0 1 28.92 15.16 L 28.92 26.52 A 1.756 1.756 0 0 1 28.745 27.309 A 1.769 1.769 0 0 1 28.38 27.8 Q 27.84 28.32 27.08 28.32 A 1.829 1.829 0 0 1 26.341 28.174 A 1.754 1.754 0 0 1 25.8 27.8 A 1.736 1.736 0 0 1 25.28 26.544 A 2.208 2.208 0 0 1 25.28 26.52 L 25.28 15.56 A 8.226 8.226 0 0 0 25.165 14.139 Q 25.03 13.37 24.736 12.753 A 4.106 4.106 0 0 0 24.26 11.98 A 3.119 3.119 0 0 0 22.812 10.971 Q 22.276 10.78 21.612 10.715 A 7.462 7.462 0 0 0 20.88 10.68 A 6.763 6.763 0 0 0 18.743 11.008 A 5.915 5.915 0 0 0 17.12 11.84 Q 15.52 13 14.32 14.52 L 14.32 26.52 A 1.756 1.756 0 0 1 14.145 27.309 A 1.769 1.769 0 0 1 13.78 27.8 Q 13.24 28.32 12.48 28.32 A 1.829 1.829 0 0 1 11.741 28.174 A 1.754 1.754 0 0 1 11.2 27.8 A 1.736 1.736 0 0 1 10.68 26.544 A 2.208 2.208 0 0 1 10.68 26.52 Z M 41.64 28.52 Q 39.44 28.52 37.66 28.04 A 14.81 14.81 0 0 1 34.599 26.849 A 13.735 13.735 0 0 1 34.36 26.72 Q 33.68 26.24 33.68 25.4 A 1.579 1.579 0 0 1 33.994 24.459 A 2.081 2.081 0 0 1 34.12 24.3 A 1.416 1.416 0 0 1 35.151 23.802 A 1.787 1.787 0 0 1 35.24 23.8 Q 35.6 23.8 35.96 23.96 A 15.866 15.866 0 0 0 37.396 24.513 A 19.362 19.362 0 0 0 38.34 24.8 Q 39.457 25.11 40.914 25.153 A 16.282 16.282 0 0 0 41.4 25.16 A 11.57 11.57 0 0 0 42.575 25.105 Q 43.767 24.983 44.501 24.591 A 2.759 2.759 0 0 0 44.78 24.42 A 2.357 2.357 0 0 0 45.817 22.71 A 3.167 3.167 0 0 0 45.84 22.32 A 1.416 1.416 0 0 0 45.31 21.185 A 2.121 2.121 0 0 0 44.98 20.96 A 6.428 6.428 0 0 0 44.262 20.62 Q 43.871 20.461 43.408 20.322 A 13.648 13.648 0 0 0 42.74 20.14 Q 41.36 19.8 39.84 19.42 Q 38.32 19.04 36.94 18.38 A 6.173 6.173 0 0 1 35.241 17.199 A 5.721 5.721 0 0 1 34.7 16.58 A 4.1 4.1 0 0 1 33.993 15.041 Q 33.855 14.46 33.842 13.782 A 7.374 7.374 0 0 1 33.84 13.64 A 6.17 6.17 0 0 1 34.359 11.084 A 5.988 5.988 0 0 1 35.8 9.12 Q 37.76 7.32 41.64 7.32 A 17.225 17.225 0 0 1 43.81 7.453 A 14.902 14.902 0 0 1 44.74 7.6 A 19.808 19.808 0 0 1 46.479 8.013 A 16.496 16.496 0 0 1 47.44 8.32 A 1.569 1.569 0 0 1 47.962 8.575 A 1.441 1.441 0 0 1 48.3 8.94 A 2.074 2.074 0 0 1 48.493 9.307 Q 48.6 9.577 48.6 9.84 Q 48.6 10.48 48.14 10.96 A 1.51 1.51 0 0 1 47.043 11.44 A 1.898 1.898 0 0 1 47 11.44 A 2.166 2.166 0 0 1 46.868 11.436 Q 46.808 11.433 46.755 11.425 A 1.198 1.198 0 0 1 46.72 11.42 Q 46.6 11.4 46.48 11.36 Q 45.52 11.04 44.38 10.84 Q 43.24 10.64 41.92 10.64 Q 40.477 10.64 39.463 10.985 A 4.031 4.031 0 0 0 38.52 11.44 A 3.276 3.276 0 0 0 37.887 11.979 A 2.131 2.131 0 0 0 37.32 13.44 A 1.993 1.993 0 0 0 37.457 14.193 Q 37.645 14.659 38.094 14.981 A 2.336 2.336 0 0 0 38.18 15.04 Q 38.881 15.496 39.927 15.807 A 10.934 10.934 0 0 0 40.42 15.94 Q 41.8 16.28 43.34 16.64 Q 44.88 17 46.26 17.66 A 6.013 6.013 0 0 1 48.099 18.997 A 5.737 5.737 0 0 1 48.5 19.48 A 4.075 4.075 0 0 1 49.144 20.834 Q 49.36 21.616 49.36 22.6 A 5.362 5.362 0 0 1 47.655 26.56 A 7.224 7.224 0 0 1 47.42 26.78 A 6.119 6.119 0 0 1 45.272 28 Q 43.74 28.52 41.64 28.52 Z M 84.24 26.52 L 84.24 3.6 L 76.08 3.6 A 1.774 1.774 0 0 1 75.449 3.491 A 1.594 1.594 0 0 1 74.88 3.12 A 1.619 1.619 0 0 1 74.401 1.966 A 2.126 2.126 0 0 1 74.4 1.92 Q 74.4 1.2 74.88 0.7 A 1.588 1.588 0 0 1 76.036 0.201 A 2.041 2.041 0 0 1 76.08 0.2 L 96 0.2 A 1.708 1.708 0 0 1 96.759 0.367 A 1.712 1.712 0 0 1 97.22 0.7 A 1.657 1.657 0 0 1 97.72 1.898 A 2.06 2.06 0 0 1 97.72 1.92 Q 97.72 2.64 97.22 3.12 Q 96.72 3.6 96 3.6 L 87.88 3.6 L 87.88 26.52 A 1.756 1.756 0 0 1 87.705 27.309 A 1.769 1.769 0 0 1 87.34 27.8 Q 86.8 28.32 86.04 28.32 A 1.829 1.829 0 0 1 85.301 28.174 A 1.754 1.754 0 0 1 84.76 27.8 A 1.736 1.736 0 0 1 84.24 26.544 A 2.208 2.208 0 0 1 84.24 26.52 Z M 0 26.52 L 0 1.84 Q 0 1.08 0.52 0.54 A 1.702 1.702 0 0 1 1.753 0.001 A 2.107 2.107 0 0 1 1.8 0 A 1.77 1.77 0 0 1 3.083 0.523 A 2.155 2.155 0 0 1 3.1 0.54 A 1.77 1.77 0 0 1 3.64 1.817 A 2.129 2.129 0 0 1 3.64 1.84 L 3.64 26.52 A 1.756 1.756 0 0 1 3.465 27.309 A 1.769 1.769 0 0 1 3.1 27.8 Q 2.56 28.32 1.8 28.32 A 1.829 1.829 0 0 1 1.061 28.174 A 1.754 1.754 0 0 1 0.52 27.8 A 1.736 1.736 0 0 1 0 26.544 A 2.208 2.208 0 0 1 0 26.52 Z M 54.96 26.52 L 54.96 1.84 Q 54.96 1.08 55.48 0.54 A 1.702 1.702 0 0 1 56.713 0.001 A 2.107 2.107 0 0 1 56.76 0 A 1.77 1.77 0 0 1 58.043 0.523 A 2.155 2.155 0 0 1 58.06 0.54 A 1.77 1.77 0 0 1 58.6 1.817 A 2.129 2.129 0 0 1 58.6 1.84 L 58.6 26.52 A 1.756 1.756 0 0 1 58.425 27.309 A 1.769 1.769 0 0 1 58.06 27.8 Q 57.52 28.32 56.76 28.32 A 1.829 1.829 0 0 1 56.021 28.174 A 1.754 1.754 0 0 1 55.48 27.8 A 1.736 1.736 0 0 1 54.96 26.544 A 2.208 2.208 0 0 1 54.96 26.52 Z M 66.36 26.52 L 66.36 1.84 Q 66.36 1.08 66.88 0.54 A 1.702 1.702 0 0 1 68.113 0.001 A 2.107 2.107 0 0 1 68.16 0 A 1.77 1.77 0 0 1 69.443 0.523 A 2.155 2.155 0 0 1 69.46 0.54 A 1.77 1.77 0 0 1 70 1.817 A 2.129 2.129 0 0 1 70 1.84 L 70 26.52 A 1.756 1.756 0 0 1 69.825 27.309 A 1.769 1.769 0 0 1 69.46 27.8 Q 68.92 28.32 68.16 28.32 A 1.829 1.829 0 0 1 67.421 28.174 A 1.754 1.754 0 0 1 66.88 27.8 A 1.736 1.736 0 0 1 66.36 26.544 A 2.208 2.208 0 0 1 66.36 26.52 Z" vector-effect="non-scaling-stroke"/></g></svg>